<?xml version="1.0" encoding="utf-8"?>
<!-- Generator: Adobe Illustrator 16.0.3, SVG Export Plug-In . SVG Version: 6.00 Build 0)  -->
<!DOCTYPE svg PUBLIC "-//W3C//DTD SVG 1.1//EN" "http://www.w3.org/Graphics/SVG/1.1/DTD/svg11.dtd">
<svg version="1.1" id="Layer_1" xmlns="http://www.w3.org/2000/svg" xmlns:xlink="http://www.w3.org/1999/xlink" x="0px" y="0px"
	 width="1000px" height="1000px" viewBox="0 0 1000 1000" enable-background="new 0 0 1000 1000" xml:space="preserve">
<path fill-rule="evenodd" clip-rule="evenodd" fill="#181616" d="M499.978,0C223.888,0,0,229.524,0,512.695
	c0,226.481,143.254,418.633,341.962,486.433c24.999,4.672,34.127-11.126,34.127-24.71c0-12.171-0.435-44.442-0.675-87.225
	c-139.086,30.98-168.433-68.722-168.433-68.722c-22.736-59.194-55.515-74.992-55.515-74.992
	c-45.397-31.779,3.433-31.164,3.433-31.164c50.179,3.626,76.587,52.862,76.587,52.862c44.604,78.312,117.025,55.691,145.517,42.599
	c4.541-33.132,17.461-55.753,31.744-68.538c-111.029-12.97-227.754-56.92-227.754-253.374c0-55.968,19.483-101.73,51.468-137.567
	c-5.141-12.97-22.302-65.095,4.901-135.677c0,0,41.98-13.784,137.497,52.556c39.883-11.371,82.658-17.058,125.179-17.257
	c42.476,0.199,85.221,5.886,125.178,17.257c95.473-66.34,137.378-52.556,137.378-52.556c27.278,70.582,10.102,122.707,4.976,135.677
	c32.015,35.837,51.379,81.6,51.379,137.567c0,196.946-116.905,240.281-228.294,252.944c17.955,15.858,33.932,47.146,33.932,94.969
	c0,68.538-0.6,123.798-0.6,140.641c0,13.707,8.993,29.628,34.383,24.648C856.897,931.144,1000,739.115,1000,512.695
	C1000,229.524,776.143,0,499.978,0z"/>
</svg>
